<svg width="69" height="69" viewBox="0 0 69 69" fill="none" xmlns="http://www.w3.org/2000/svg">
<path d="M34.5007 0C15.4762 0 0 15.4755 0 34.4986C0 53.523 15.477 69 34.5 69C53.5223 69 68.9978 53.523 68.9978 34.4986C68.9986 15.4762 53.523 0 34.5007 0ZM3.48155 34.4986C3.48155 30.0025 4.44585 25.7323 6.16727 21.8758L20.9638 62.4155C10.6174 57.3867 3.48155 46.7765 3.48155 34.4986ZM34.5007 65.5192C31.4558 65.5192 28.517 65.0725 25.7381 64.2552L35.0442 37.2122L44.5804 63.3332C44.6421 63.4873 44.7174 63.6278 44.8012 63.7605C41.5771 64.8947 38.1128 65.5192 34.5007 65.5192ZM38.7745 19.9558C40.6415 19.8576 42.3256 19.6604 42.3256 19.6604C43.9961 19.4625 43.8004 17.007 42.127 17.1052C42.127 17.1052 37.1033 17.4988 33.859 17.4988C30.812 17.4988 25.6886 17.1052 25.6886 17.1052C24.0166 17.007 23.8216 19.5622 25.4929 19.6604C25.4929 19.6604 27.0759 19.8576 28.7457 19.9558L33.578 33.1973L26.7898 53.5553L15.4963 19.9565C17.3661 19.859 19.0467 19.6611 19.0467 19.6611C20.7172 19.464 20.52 17.007 18.8474 17.1073C18.8474 17.1073 13.8258 17.5009 10.5809 17.5009C9.99797 17.5009 9.31185 17.4859 8.58485 17.4637C14.1298 9.04155 23.6646 3.48155 34.5007 3.48155C42.5772 3.48155 49.9289 6.56876 55.4466 11.624C55.3126 11.6169 55.1828 11.5989 55.0437 11.5989C51.9981 11.5989 49.8357 14.2531 49.8357 17.1045C49.8357 19.6597 51.3091 21.8235 52.8814 24.3787C54.0622 26.445 55.4387 29.0999 55.4387 32.9334C55.4387 35.5891 54.4192 38.6691 53.0778 42.9608L49.9841 53.3001L38.7745 19.9558ZM50.0938 61.3113L59.5684 33.9178C61.34 29.4935 61.9272 25.9553 61.9272 22.8071C61.9272 21.6665 61.8527 20.6061 61.7179 19.6174C64.1412 24.036 65.5199 29.107 65.5185 34.5C65.5177 45.9426 59.3146 55.9342 50.0938 61.3113Z" fill="black"/>
</svg>
