<svg width="41" height="43" viewBox="0 0 41 43" fill="none" xmlns="http://www.w3.org/2000/svg">
<g filter="url(#filter0_d_101_79)">
<path fill-rule="evenodd" clip-rule="evenodd" d="M12.9784 31.1251C13.2931 31.4086 13.5104 31.6122 14.1817 32.25C14.8393 32.8746 15.1573 33.1697 15.4481 33.4166C15.5694 33.5188 15.6727 33.7919 15.7137 34.1979C15.7474 34.532 15.7357 34.9046 15.6948 35.2637C15.6807 35.3879 15.6671 35.4774 15.6593 35.5201C15.5716 35.9992 15.9367 36.4416 16.4236 36.4466C16.8618 36.451 17.1995 36.4564 18.0932 36.4724C18.3168 36.4764 18.3168 36.4764 18.5412 36.4803C20.9705 36.522 22.2113 36.5106 23.1018 36.3986C24.0537 36.2789 25.034 35.1294 25.8814 33.6869C26.5994 34.9633 27.5954 36.2096 28.6012 36.3717C28.9207 36.4227 29.3072 36.4386 29.7552 36.4283C30.0892 36.4206 30.4427 36.3986 30.7994 36.3667C31.0684 36.3427 31.2827 36.3185 31.4107 36.3019C31.8837 36.2406 32.1932 35.7751 32.0669 35.3152C32.0396 35.2159 31.9957 35.0336 31.9515 34.8041C31.9002 34.5381 31.8631 34.2782 31.8463 34.0415C31.8356 33.8914 31.8335 33.7556 31.8403 33.6381C31.8521 33.4334 31.8558 33.3187 31.8615 33.0539C31.8637 32.9553 31.8637 32.9553 31.8666 32.869C31.8777 32.5866 31.9156 32.3184 32.0384 31.7337C32.0911 31.4799 32.3468 30.9942 32.7494 30.3932C32.8693 30.2142 33.0004 30.0272 33.1409 29.8343C33.4072 29.4683 33.6939 29.0985 33.9806 28.7447C34.1524 28.5327 34.2852 28.3741 34.3592 28.2881C34.9794 27.3995 35.6407 25.9448 35.8837 25.0943C36.117 24.2769 36.3036 22.7716 36.4183 21.292C36.4811 20.4526 36.5044 19.776 36.5044 18.7146C36.5045 18.5285 36.5045 18.5285 36.5048 18.3747C36.5054 18.1229 36.5054 18.0277 36.5046 17.91C36.5024 17.5884 36.493 17.2697 36.4619 16.4569C36.3951 14.7533 35.4615 13.6519 34.0858 13.4395C32.9154 13.2587 31.4908 14.2308 31.4908 14.2308C31.4908 14.2308 31.1737 13.1362 30.9596 12.7983C30.6116 12.2552 29.7155 11.5633 29.0305 11.4285C28.326 11.2917 27.4908 11.3068 26.7238 11.4425C26.0521 11.5627 25.3831 12.1624 24.9961 12.8092C24.7192 13.2707 24.9796 12.7847 24.7027 12.3074C24.3194 11.6499 23.4269 11.0611 22.577 10.8874C21.8568 10.7384 21.0318 10.7952 20.2782 11.0191C19.3087 11.3088 19.1543 12.0466 19.1158 11.8354C18.9868 11.1272 18.9749 11.1737 18.8946 10.6685C18.596 8.79406 18.262 7.49706 17.7554 6.36529C17.7846 6.43036 17.5699 5.94205 17.4918 5.77366C17.3565 5.4821 17.2215 5.2182 17.073 4.96438C16.6155 4.18205 16.0912 3.59631 15.4334 3.26355C14.2911 2.68506 12.5788 2.96659 11.7672 3.91397C10.9612 4.85546 10.8268 6.4296 11.0298 8.37751C11.1073 9.1338 11.379 10.5145 11.6253 11.5351C11.7124 11.8894 11.7888 12.2124 11.9287 12.8092C11.9528 12.9107 11.9528 12.9107 11.9771 13.0123C12.0854 13.4639 12.1803 13.8355 12.2937 14.2433C12.2818 14.2008 12.4968 14.9637 12.5426 15.1326C12.5579 15.189 12.5579 15.189 12.573 15.2456C12.6584 15.5675 12.742 15.9147 12.8726 16.4941C12.944 16.8126 13.0137 17.153 13.0819 17.5137C13.2679 18.4976 13.2689 18.2927 13.0898 18.0829C12.9661 17.938 12.8498 17.8064 12.7374 17.685C12.5285 17.4595 12.3365 17.2731 12.1542 17.1243C10.8259 16.0375 10.012 15.5574 8.8946 15.4519C7.0617 15.2758 5.32225 16.5705 5.0607 18.3178C4.89985 19.3892 4.95167 19.8824 5.44729 20.8291C5.72002 21.3407 6.18137 21.9586 7.04215 23.022C7.09483 23.0871 7.09483 23.0871 7.14748 23.152C8.20408 24.454 8.31918 24.5987 8.57042 24.9625C9.24954 25.948 10.9028 28.7776 11.2033 29.1575L12.9784 31.1251Z" fill="black"/>
<path fill-rule="evenodd" clip-rule="evenodd" d="M8.36683 22.1625C8.31472 22.0982 8.31472 22.0982 8.26276 22.0341C7.4728 21.0581 7.03963 20.478 6.83573 20.0956C6.51577 19.4843 6.49836 19.3186 6.61368 18.5506C6.74921 17.6451 7.72716 16.9172 8.74573 17.0151C9.4505 17.0816 10.0662 17.4449 11.1607 18.3403C11.2792 18.437 11.422 18.5757 11.5854 18.7522C11.6821 18.8565 11.7846 18.9725 11.8953 19.1022C12.0616 19.2971 12.6219 19.9827 12.5394 19.8829C12.6611 20.0293 12.7482 20.1427 12.8476 20.2817C13.0447 20.563 13.1555 20.7192 13.3056 20.9193C13.2352 20.8254 13.7552 21.5442 13.8653 21.6493C14.4486 22.2061 15.2933 21.7371 15.2404 20.9951C15.2316 20.8712 15.2025 20.7374 15.1416 20.5038C14.9011 18.7885 14.817 18.2379 14.6249 17.222C14.5536 16.8446 14.4804 16.4871 14.4047 16.1496C14.2699 15.5517 14.182 15.1863 14.0907 14.8426C14.0745 14.7817 14.0745 14.7817 14.0582 14.7215C14.01 14.5439 13.7918 13.7695 13.8063 13.8214C13.6988 13.4347 13.6083 13.0808 13.5041 12.6461C13.4805 12.5471 13.4805 12.5471 13.4568 12.4474C13.3176 11.8538 13.2393 11.5225 13.151 11.1634C12.9207 10.2093 12.6605 8.88707 12.5918 8.21606C12.4337 6.69972 12.5428 5.42261 12.9599 4.93539C13.2856 4.55523 14.2086 4.40346 14.7243 4.66461C15.0616 4.83521 15.3986 5.21174 15.7175 5.75707C15.8382 5.96345 15.9514 6.18475 16.0673 6.43456C16.1375 6.58585 16.3456 7.05927 16.3222 7.00692C16.7626 7.99082 17.0651 9.1653 17.3438 10.9154C17.4263 11.4339 17.5283 12.0213 17.6592 12.7401C17.6981 12.9532 17.6981 12.9532 17.7371 13.1654C18.3682 16.5894 18.322 16.3299 18.3311 16.603C18.3642 17.5991 19.8346 17.6225 19.8993 16.6279C19.9198 16.3124 19.9125 16.0308 19.8761 15.222C19.871 15.1075 19.8709 15.1075 19.866 14.9935C19.8341 14.2484 19.836 13.8196 19.88 13.576C19.9603 13.1316 20.3592 12.6338 20.7266 12.524C21.2426 12.3707 21.8079 12.3318 22.2607 12.4255C22.6942 12.5141 23.2001 12.8478 23.3452 13.0968C23.5201 13.3983 23.6701 13.8576 23.785 14.427C23.8778 14.8865 23.9417 15.3795 23.9866 15.9056C24.0005 16.0694 24.0097 16.1958 24.0237 16.4051C24.0296 16.4927 24.0296 16.4927 24.0356 16.565C24.0389 16.6012 24.0389 16.6012 24.0471 16.6585C24.0535 16.6986 24.0535 16.6986 24.0834 16.8003C24.0987 17.0889 24.0987 17.0889 25.2576 17.1959C25.6037 16.7775 25.6037 16.7775 25.5943 16.7042C25.651 16.4564 25.6857 16.1802 25.7351 15.6612C25.7667 15.3238 25.7826 15.158 25.8012 14.9859C25.8783 14.2738 25.9761 13.8214 26.0954 13.6225C26.2435 13.375 26.765 13.0303 26.9989 12.9885C27.5862 12.8846 28.2313 12.8729 28.7293 12.9696C28.9548 13.014 29.5051 13.4389 29.6353 13.6422C29.9028 14.0642 30.1629 15.4247 30.3094 16.7747C30.2863 16.8632 30.2863 16.8632 30.6459 17.3768C31.8819 17.2359 31.8819 17.2359 31.8472 17.0127C31.8798 16.9332 31.9057 16.8412 31.9424 16.6984C32.0308 16.364 32.0894 16.1698 32.1766 15.9523C32.2369 15.8017 32.3005 15.673 32.3657 15.5706C32.6184 15.173 33.2725 14.9028 33.8461 14.9914C34.4622 15.0865 34.8548 15.5497 34.8928 16.5176C34.9232 17.3142 34.9322 17.6204 34.9343 17.9209C34.9351 18.0318 34.9351 18.1209 34.9345 18.3713C34.9342 18.526 34.9342 18.526 34.9341 18.7146C34.9341 19.7383 34.9121 20.3761 34.8525 21.1727C34.7465 22.5405 34.5675 23.9842 34.3738 24.6631C34.176 25.3553 33.5856 26.6541 33.1181 27.3295C33.0849 27.3616 32.9426 27.5315 32.7607 27.7559C32.4579 28.1295 32.1551 28.5202 31.8712 28.9102C31.7193 29.119 31.5766 29.3224 31.4448 29.5192C30.9346 30.2809 30.6072 30.9028 30.5013 31.4126C30.3622 32.0751 30.3125 32.4265 30.2975 32.8074C30.2939 32.9153 30.2939 32.9153 30.2916 33.0199C30.2862 33.2671 30.283 33.3669 30.2726 33.5476C30.2616 33.7375 30.2647 33.9395 30.2799 34.153C30.3017 34.4586 30.2799 34.8763 30.2799 34.8763C30.2799 34.8763 30.0148 34.8515 29.7191 34.8583C29.3579 34.8667 29.0575 34.8543 28.8499 34.8212C28.5504 34.7729 27.7416 33.7608 27.3275 32.9723C26.6946 31.7654 25.1582 31.824 24.5284 32.8898C23.9604 33.8567 23.1473 34.8102 22.9059 34.8405C22.1216 34.9392 20.907 34.9504 18.5682 34.9102C18.3446 34.9063 18.3446 34.9063 18.1212 34.9023C17.2232 34.8863 17.2577 35.0379 17.2761 34.8763C17.3286 34.415 17.3226 34.5015 17.2761 34.0403C17.1981 33.267 16.9594 32.6364 16.4621 32.2176C16.2048 31.9991 15.8972 31.7135 15.2791 31.1265C14.5731 30.4558 14.3519 30.2485 14.0794 30.009L12.4017 28.1441C12.2175 27.9086 10.601 25.1418 9.86305 24.0709C9.57598 23.6551 9.46859 23.5202 8.36683 22.1625ZM28.2757 22.1704V29.4126C28.2757 30.4595 29.846 30.4595 29.846 29.4126V22.1704C29.846 21.1235 28.2757 21.1235 28.2757 22.1704ZM24.0221 22.1692L24.0556 29.4407C24.0604 30.4876 25.6307 30.4804 25.6259 29.4335L25.5924 22.1619C25.5875 21.1151 24.0173 21.1223 24.0221 22.1692ZM21.4905 29.4001L21.4465 22.2269C21.4401 21.18 19.8698 21.1897 19.8762 22.2365L19.9202 29.4097C19.9266 30.4566 21.4969 30.4469 21.4905 29.4001Z" fill="white"/>
</g>
<defs>
<filter id="filter0_d_101_79" x="0.791687" y="0.870117" width="39.9011" height="41.9137" filterUnits="userSpaceOnUse" color-interpolation-filters="sRGB">
<feFlood flood-opacity="0" result="BackgroundImageFix"/>
<feColorMatrix in="SourceAlpha" type="matrix" values="0 0 0 0 0 0 0 0 0 0 0 0 0 0 0 0 0 0 127 0" result="hardAlpha"/>
<feOffset dy="2.09375"/>
<feGaussianBlur stdDeviation="2.09375"/>
<feColorMatrix type="matrix" values="0 0 0 0 0 0 0 0 0 0 0 0 0 0 0 0 0 0 0.298656 0"/>
<feBlend mode="normal" in2="BackgroundImageFix" result="effect1_dropShadow_101_79"/>
<feBlend mode="normal" in="SourceGraphic" in2="effect1_dropShadow_101_79" result="shape"/>
</filter>
</defs>
</svg>
